<svg width="257" height="257" viewBox="0 0 257 257" fill="none" xmlns="http://www.w3.org/2000/svg">
<path  d="M896 618.667c-8.619 0-206.933-1.237-384-85.675-177.067 84.437-375.381 85.675-384 85.675-23.564 0-42.667-19.103-42.667-42.667v0-421.675c0-12.037 4.984-22.909 13.002-30.666l0.012-0.011c8.32-8.021 20.48-13.013 31.104-11.947l5.419 0.043c29.141 0 183.296-4.181 359.083-86.4 0.683-0.341 1.451-0.213 2.133-0.469 5.077-2.091 10.411-3.541 15.915-3.541s10.837 1.451 15.957 3.541c0.683 0.256 1.451 0.128 2.133 0.469 175.787 82.261 329.941 86.4 359.083 86.4l5.419-0.043c10.155-1.067 22.741 3.925 31.104 11.947 8.277 8.064 12.971 19.157 12.971 30.677v421.675c0 23.564-19.103 42.667-42.667 42.667v0zM170.667 531.243c63.36-4.736 186.923-20.48 298.667-72.192v-330.325c-128 50.133-238.507 63.744-298.667 67.243v335.275zM853.333 195.968c-60.16-3.499-170.667-17.109-298.667-67.243v330.325c111.744 51.712 235.307 67.456 298.667 72.192v-335.275zM640 746.667c0-70.692-57.308-128-128-128s-128 57.308-128 128c0 70.692 57.308 128 128 128s128-57.308 128-128z" />
</svg>