<svg width="257" height="257" id="Слой_1" data-name="Слой 1" xmlns="http://www.w3.org/2000/svg" viewBox="0 0 25 25">
<path id="pen" class="planSvg" d="M810.667 789.333h-128v85.333h-85.333v-85.333h-170.667v85.333h-85.333v-85.333h-128c-47.061 0-85.333-38.272-85.333-85.333v-597.333c0-47.061 38.272-85.333 85.333-85.333h597.333c47.061 0 85.333 38.272 85.333 85.333v597.333c0 47.061-38.272 85.333-85.333 85.333zM213.333 106.667v554.667h597.333v42.667l0.085-597.333h-597.419zM666.795 440.192l-76.8 76.757 58.453 58.496 76.8-76.757zM341.547 268.757v-76.757h76.757l212.309 212.053-76.757 76.757z" /></svg>