<svg id="Слой_1" data-name="Слой 1" xmlns="http://www.w3.org/2000/svg" viewBox="0 0 500 500">
<defs>
<style>.cls-1{fill:#ff8514;}</style>
</defs>
<path id="pen" class="cls-1" d="M375.79,77.57,213.52,258a4.31,4.31,0,0,0-1.05,2.84v43a3.84,3.84,0,0,0,3.62,4h39.34a3.47,3.47,0,0,0,2.56-1.18L420.25,126.83a4.33,4.33,0,0,0,0-5.69L380.92,77.56A3.38,3.38,0,0,0,375.79,77.57Z"/>
<path id="penDon" class="cls-1" d="M240.86,171.36h-137c-9.92,0-18,8.91-18,19.9v199c0,11,8,19.9,18,19.9H346.71c9.92,0,18-8.91,18-19.9V236.89a20.93,20.93,0,0,1,5.74-14.58h0c11.49-11.83,30.17-2.8,30.17,14.58V414.4a21.58,21.58,0,0,1-2.42,10c-4.68,8.9-15.05,27-21.52,25.53-7.9-1.75-256.81-.2-294.51.05a16.55,16.55,0,0,1-8.93-2.58l-14.08-8.81A20.37,20.37,0,0,1,50,421.26V110a21.56,21.56,0,0,1,2.52-10.16L63.59,79.15A17.7,17.7,0,0,1,79,69.41H296.12c15.93,0,24,21.29,12.79,33.86l-55.26,62.16A17.14,17.14,0,0,1,240.86,171.36Z"/>
<path id="kuniPen" class="cls-1" d="M408.86,93.88,388.75,69.37c19.67-20,44.89-25.4,56-12.06,10.6,12.75,4.77,38.47-13.24,58.43Z"/>
</svg>