<svg width="257" height="257" viewBox="0 0 257 257" fill="none" xmlns="http://www.w3.org/2000/svg">
<path d="M128 106.667h768c0.004 0 0.008 0 0.013 0 23.564 0 42.667 19.103 42.667 42.667 0 7.924-2.16 15.344-5.924 21.702l0.108-0.198-298.667 512c-15.317 26.24-58.411 26.155-73.771 0l-139.477-239.104-43.52 69.632c-7.654 12.071-20.945 19.968-36.081 19.968-0.005 0-0.011 0-0.016 0h-0.042c-15.168-0.016-28.481-7.944-36.035-19.878l-0.103-0.175-213.333-341.333c-4.070-6.418-6.485-14.234-6.485-22.613 0-23.564 19.103-42.667 42.667-42.667 0 0 0 0 0 0v0zM597.333 576.64l224.384-384.64h-243.371l-106.069 170.112 125.056 214.528zM341.376 410.24l136.363-218.24h-272.725l136.363 218.24zM256 618.667c70.571 0 128 57.429 128 128s-57.429 128-128 128-128-57.429-128-128 57.429-128 128-128zM256 789.333c23.564 0 42.667-19.103 42.667-42.667s-19.103-42.667-42.667-42.667v0c-23.564 0-42.667 19.103-42.667 42.667s19.103 42.667 42.667 42.667v0z" />
</svg>